<?xml version="1.0" encoding="iso-8859-1"?>
<!-- Generator: Adobe Illustrator 16.0.0, SVG Export Plug-In . SVG Version: 6.00 Build 0)  -->
<!DOCTYPE svg PUBLIC "-//W3C//DTD SVG 1.1//EN" "http://www.w3.org/Graphics/SVG/1.1/DTD/svg11.dtd">
<svg version="1.1" id="Capa_1" xmlns="http://www.w3.org/2000/svg" xmlns:xlink="http://www.w3.org/1999/xlink" x="0px" y="0px"
	 width="70.074px" height="70.074px" viewBox="0 0 70.074 70.074" style="enable-background:new 0 0 70.074 70.074;"
	 xml:space="preserve">
<g>
	<path d="M67.684,12.268V8.096h-4.423v-5.26l-28.335,5.26H2.389v4.172H0v44.88h14.008l14.886,10.091l0.087-10.091h41.093v-44.88
		H67.684z M26.647,57.148l-0.049,5.712l-8.426-5.712l-6.028-4.088H4.732V12.268v-1.836h29.137v1.836V53.06h-7.186L26.647,57.148z
		 M47.729,8.096l13.196-2.45v2.45v1.168v1.167v1.836v35.961l-24.72,4.594V12.268v-1.836v-0.196l5.235-0.972L47.729,8.096z
		 M65.348,12.268V53.06H47.729l15.532-2.879V12.27v-1.836h2.087V12.268z M39.554,42.259l-0.611-2.254l18.477-5.021l0.611,2.255
		L39.554,42.259z M39.342,48.559l-0.611-2.253l18.477-5.023l0.611,2.256L39.342,48.559z M39.809,18.261l-0.629-2.249l13.431-3.747
		l4.585-1.277l0.355,1.277l0.27,0.972L39.809,18.261z M39.809,24.225l-0.629-2.249l18.016-5.023l0.63,2.25L39.809,24.225z
		 M39.772,30.183l-0.63-2.249l18.053-5.022l0.627,2.25L39.772,30.183z M39.772,36.148l-0.63-2.25l18.053-5.023l0.627,2.252
		L39.772,36.148z M7.367,39.962h22.898v2.336H7.367V39.962z M7.157,46.272h22.896v2.335H7.157V46.272z M9.976,25.201l0.602-1.859
		h3.467l0.616,1.859h1.014h1.019l-3.24-9.143H12.35h-1.11l-3.238,9.143h0.993H9.976z M12.316,18.098l1.217,3.671h-2.424
		L12.316,18.098z M30.051,18.308H18.082v-2.336h11.969V18.308z M30.051,24.272H18.082v-2.336h11.969V24.272z M30.051,30.228H7.58
		v-2.335h22.471V30.228z M30.051,36.192H7.58v-2.336h22.471V36.192z"/>
</g>
<g>
</g>
<g>
</g>
<g>
</g>
<g>
</g>
<g>
</g>
<g>
</g>
<g>
</g>
<g>
</g>
<g>
</g>
<g>
</g>
<g>
</g>
<g>
</g>
<g>
</g>
<g>
</g>
<g>
</g>
</svg>
